<?xml version="1.0" encoding="utf-8"?>
<!-- Generator: Adobe Illustrator 23.0.3, SVG Export Plug-In . SVG Version: 6.00 Build 0)  -->
<svg version="1.1" id="레이어_1" xmlns="http://www.w3.org/2000/svg" xmlns:xlink="http://www.w3.org/1999/xlink" x="0px"
	 y="0px" viewBox="0 0 100 100" style="enable-background:new 0 0 100 100;" xml:space="preserve">
<style type="text/css">
	.st0{fill:#79C8C1;}
	.st1{fill:#89AC37;}
	.st2{fill:#AEDBD1;}
	.st3{opacity:0.49;fill:#FFFFFF;}
</style>
<g>
	<ellipse transform="matrix(0.2574 -0.9663 0.9663 0.2574 -11.1837 85.4478)" class="st0" cx="50" cy="50" rx="49.99" ry="49.99"/>
	<path class="st1" d="M87.57,17.03c-2.15,0.01-3.88,0.91-4.42,3.57c-1.74,8.62-6.42,11.31-9.73,6.76c-3.31-4.55-7.71-10.92-9.72-4.1
		c-2,6.82,1.01,0.22,3.79,2.76c2.78,2.55,6.97,8.21-2.13,10.08s-24.46-2.93-17.22,5.08c7.24,8.02,17.91,8.86,10.88,18.4
		c-7.03,9.53,3.64,14.18,6.71,2.68c3.07-11.49-3.71-19.71,3.66-16.77c7.37,2.94,13.76,14.04,10.77,4.87s-2.55-17.7,2.77-12.55
		c5.32,5.15-4.1,23.03,12.04,26.82c0.95,0.22,1.83,0.35,2.67,0.41C103.07,47.97,98.79,29.84,87.57,17.03z"/>
	<path class="st1" d="M3.58,31.46c-1.36,3.42-2.31,6.9-2.89,10.38c3.32,1.37,7.61,2.63,9.98,6.4c5.28,8.37-2.35,19.95,4.66,31.86
		c7.01,11.91,11.07-2.04,7.39-11.86c-3.67-9.82,14.96-12.25,14.2-18.44c-0.76-6.19-7.88,0.72-10.6-5.88
		c-2.71-6.6-11.83,0.72-10.59-7.61c1.24-8.33,10.64-8.57,19.22-11.98c8.58-3.41,12.24-1.18,8.12-7.96c-4.13-6.78-9.2-5-7.57-10.05
		c0.5-1.53,0.28-2.9-0.26-4.07C21.32,6.56,9.4,16.88,3.58,31.46z"/>
	<path class="st1" d="M44.88,43.66c-0.23,0.58-1.4,0.65-2.62,0.16c-1.22-0.49-2.02-1.35-1.79-1.92c0.23-0.58,1.4-0.65,2.62-0.16
		C44.32,42.22,45.12,43.08,44.88,43.66z"/>
	<path class="st1" d="M47.86,46.91c-0.16,0.41-0.62,0.61-1.03,0.44c-0.41-0.16-0.61-0.62-0.44-1.03c0.16-0.41,0.62-0.6,1.03-0.44
		C47.82,46.04,48.02,46.5,47.86,46.91z"/>
	<path class="st1" d="M72.79,69.69c-0.57,1.42-1.88,2.24-2.93,1.82c-1.05-0.42-1.44-1.91-0.87-3.34c0.57-1.42,1.88-2.24,2.93-1.82
		C72.97,66.77,73.36,68.26,72.79,69.69z"/>
	<path class="st1" d="M77.53,66.91c-0.17,0.42-0.65,0.63-1.07,0.46c-0.42-0.17-0.63-0.65-0.46-1.07c0.17-0.42,0.65-0.63,1.07-0.46
		C77.49,66.01,77.7,66.49,77.53,66.91z"/>
	<path class="st1" d="M60.46,23.46c-0.24,0.61-0.68,1.01-0.98,0.89c-0.3-0.12-0.34-0.71-0.1-1.32s0.68-1.01,0.98-0.89
		C60.66,22.26,60.71,22.85,60.46,23.46z"/>
	<path class="st1" d="M43.57,10.95c-0.26,0.64-1.48,0.76-2.74,0.26c-1.25-0.5-2.06-1.43-1.81-2.07c0.26-0.64,1.48-0.76,2.74-0.26
		C43.02,9.38,43.83,10.3,43.57,10.95z"/>
	<path class="st1" d="M40.94,5.77c-0.12,0.31-0.63,0.39-1.14,0.18c-0.51-0.2-0.82-0.62-0.7-0.92c0.12-0.31,0.63-0.39,1.14-0.18
		S41.06,5.46,40.94,5.77z"/>
	<path class="st1" d="M29.95,74.65c-0.43,1.09-1.67,1.62-2.76,1.18c-1.09-0.43-1.62-1.67-1.18-2.76c0.43-1.09,1.67-1.62,2.76-1.18
		C29.86,72.33,30.39,73.56,29.95,74.65z"/>
	<path class="st1" d="M29.36,81.28c-0.2,0.49-0.75,0.73-1.24,0.53c-0.49-0.2-0.73-0.75-0.53-1.24c0.2-0.49,0.75-0.73,1.24-0.53
		C29.32,80.23,29.56,80.79,29.36,81.28z"/>
	<path class="st2" d="M54.26,73.7C29.54,63.83,17.5,35.78,27.37,11.05c0.61-1.52,1.29-2.99,2.03-4.42
		C18.72,11.65,9.84,20.56,5.12,32.38C-4.75,57.1,7.28,85.15,32.01,95.03c23.2,9.27,49.33-0.76,60.62-22.47
		C80.97,78.03,67.17,78.86,54.26,73.7z"/>
	<path class="st3" d="M86.56,56.68c-2.7-0.66-4.13-4.34-3.19-8.22c0.95-3.88,3.9-6.5,6.61-5.84c2.7,0.66,4.13,4.34,3.19,8.22
		C92.22,54.72,89.26,57.34,86.56,56.68z"/>
	<path class="st3" d="M79.16,43.77c-6.52,4.43-16.96,0.42-23.32-8.94c-6.36-9.36-6.23-20.55,0.29-24.97
		c6.52-4.43,16.96-0.42,23.32,8.94C85.82,28.17,85.68,39.35,79.16,43.77z"/>
	<path class="st2" d="M42.99,92.24c-0.7,1.76-3.67,2.24-6.62,1.06c-2.95-1.18-4.77-3.56-4.07-5.33c0.7-1.76,3.67-2.24,6.62-1.06
		C41.88,88.09,43.7,90.48,42.99,92.24z"/>
	<path class="st2" d="M50.3,89.28c-0.26,0.66-1.44,0.81-2.63,0.34c-1.19-0.47-1.94-1.39-1.67-2.05c0.26-0.66,1.44-0.81,2.63-0.34
		C49.81,87.7,50.56,88.62,50.3,89.28z"/>
	<path class="st2" d="M8.65,45.96C7.9,47.84,6.38,49,5.27,48.55c-1.12-0.45-1.42-2.33-0.67-4.21c0.75-1.88,2.26-3.03,3.38-2.59
		C9.1,42.2,9.4,44.09,8.65,45.96z"/>
	<path class="st2" d="M7.35,37.44c-0.27,0.69-0.85,1.1-1.29,0.92c-0.44-0.18-0.58-0.88-0.3-1.56c0.27-0.69,0.85-1.1,1.29-0.92
		C7.49,36.05,7.63,36.75,7.35,37.44z"/>
	<path class="st2" d="M92.82,37.03c-0.37,0.92-1.18,1.45-1.83,1.19c-0.64-0.26-0.87-1.21-0.5-2.12c0.37-0.92,1.18-1.45,1.83-1.19
		C92.96,35.16,93.18,36.11,92.82,37.03z"/>
	<path class="st2" d="M61.05,61.66c-0.53,1.32-2.22,1.88-3.78,1.26c-1.56-0.62-2.4-2.2-1.87-3.52c0.53-1.32,2.22-1.88,3.78-1.26
		C60.74,58.76,61.58,60.34,61.05,61.66z"/>
	<path class="st2" d="M43.2,27.83c-0.34-1.23-2.36-1.75-4.5-1.16c-2.15,0.59-3.61,2.07-3.27,3.3c0.34,1.23,2.36,1.75,4.5,1.16
		C42.08,30.54,43.54,29.06,43.2,27.83z"/>
</g>
</svg>
