<?xml version="1.0" encoding="utf-8"?>
<!-- Generator: Adobe Illustrator 23.0.3, SVG Export Plug-In . SVG Version: 6.00 Build 0)  -->
<svg version="1.1" id="레이어_1" xmlns="http://www.w3.org/2000/svg" xmlns:xlink="http://www.w3.org/1999/xlink" x="0px"
	 y="0px" viewBox="0 0 13.4 19.44" style="enable-background:new 0 0 13.4 19.44;" xml:space="preserve">
<style type="text/css">
	.st0{fill:#FCF3D0;}
	.st1{fill:#F6DC69;}
	.st2{fill:#EA5A59;}
	.st3{fill:#FFFFFF;}
	.st4{fill:#D2DCDA;}
	.st5{opacity:0.5;fill:#D2DCDA;}
	.st6{fill:#F8CBD0;}
	.st7{fill:#AAB8B4;}
	.st8{fill:#79C8C1;}
	.st9{opacity:0.49;fill:#FFFFFF;}
</style>
<g>
	<path class="st0" d="M9.29,15.26c0,0,1.14,1.79,0.38,4.18C7.19,17.7,6.7,15.79,6.7,15.79"/>
	<path class="st1" d="M9.1,16.08c0,0,0.69,1.08,0.23,2.53c-1.5-1.05-1.8-2.21-1.8-2.21"/>
	<path class="st2" d="M10.7,10.33c0,0,2.05-0.02,2.49,1.18c0.44,1.21,0.07,3.81-0.17,3.89c-0.24,0.08-1.5-3.82-1.5-3.82"/>
	<path class="st2" d="M2.73,14.28c0,0-1.36,1.53-0.74,2.66c0.62,1.13,2.84,2.55,3.06,2.42c0.22-0.13-1.9-3.64-1.9-3.64"/>
	<path class="st3" d="M2.73,14.28l0.02,0.08c-0.31,0.4-1.13,1.6-0.62,2.52c0.56,1.01,2.41,2.26,2.93,2.41
		c0.01,0.04,0,0.06-0.01,0.07c-0.22,0.13-2.43-1.29-3.06-2.42C1.37,15.81,2.73,14.28,2.73,14.28z"/>
	<path class="st4" d="M10.96,12.23c0,0,0.26,1.29,0.34,2.99c0,0-2.58,1.26-5.67,2.29c0,0-0.87-0.87-1.68-2.08"/>
	<path class="st5" d="M4.8,15.04l6.16-2.81c0,0,0.26,1.29,0.34,2.99c0,0-0.37,0.18-1,0.46c-1.33-1.45-4.79-0.04-5.85,0.45
		C4.3,15.94,4.15,15.72,4,15.5C4.23,15.36,4.5,15.21,4.8,15.04z"/>
	<path class="st3" d="M1.1,0c7.6,2.06,10.89,12.39,10.89,12.39l-4.22,1.93l-0.22,0.1l-4.22,1.93C3.33,16.35-2.32,7.09,1.1,0z"/>
	<path class="st5" d="M8.35,9.24C6.41,5,3.69,1.71,1.06,0.08C1.07,0.05,1.09,0.03,1.1,0c7.6,2.06,10.89,12.39,10.89,12.39
		l-2.13,0.97C9.49,12.02,8.99,10.63,8.35,9.24z"/>
	<path class="st2" d="M0.81,10.42C-0.1,7.29-0.54,3.39,1.1,0c3.83,1.04,6.57,4.18,8.34,7.04C8.02,7.55,4.61,8.8,0.81,10.42z"/>
	<path class="st6" d="M1.56,0.14C1.64,0.16,1.72,0.19,1.8,0.22c0.04,0.02,0.09,0.03,0.13,0.05C2,0.29,2.07,0.32,2.14,0.34
		C2.19,0.36,2.24,0.38,2.28,0.4c0.07,0.03,0.13,0.05,0.2,0.08C2.53,0.5,2.57,0.52,2.62,0.54C2.68,0.57,2.75,0.6,2.81,0.63
		C2.85,0.65,2.9,0.68,2.95,0.7c0.06,0.03,0.12,0.06,0.18,0.09c0.05,0.02,0.09,0.05,0.14,0.07c0.06,0.03,0.12,0.06,0.18,0.09
		c0.05,0.03,0.09,0.05,0.14,0.08C3.64,1.07,3.7,1.1,3.76,1.13C3.8,1.16,3.85,1.18,3.89,1.21c0.06,0.04,0.12,0.07,0.17,0.11
		C4.11,1.34,4.15,1.37,4.19,1.4C4.25,1.44,4.3,1.47,4.36,1.51C4.4,1.54,4.44,1.57,4.49,1.6C4.54,1.63,4.6,1.67,4.65,1.71
		C4.69,1.74,4.73,1.77,4.77,1.8c0.06,0.04,0.11,0.08,0.17,0.12c0.04,0.03,0.08,0.06,0.11,0.09c0.06,0.04,0.11,0.09,0.17,0.13
		C5.26,2.17,5.29,2.2,5.33,2.23C5.38,2.27,5.44,2.32,5.5,2.36c0.03,0.03,0.07,0.06,0.1,0.09C5.65,2.5,5.71,2.54,5.76,2.59
		c0.03,0.03,0.06,0.06,0.1,0.09c0.06,0.05,0.11,0.1,0.17,0.15c0.03,0.03,0.06,0.06,0.09,0.08c0.06,0.05,0.11,0.1,0.17,0.16
		c0.03,0.03,0.06,0.06,0.09,0.08C6.42,3.2,6.48,3.26,6.53,3.31c0.03,0.03,0.05,0.05,0.08,0.08c0.06,0.06,0.11,0.11,0.17,0.17
		C6.8,3.59,6.83,3.61,6.85,3.64C6.91,3.7,6.96,3.76,7.02,3.82c0.02,0.02,0.04,0.05,0.06,0.07C7.14,3.95,7.2,4.01,7.25,4.08
		C7.27,4.1,7.29,4.12,7.31,4.14c0.06,0.07,0.11,0.13,0.17,0.2C7.5,4.36,7.51,4.38,7.53,4.4C7.59,4.47,7.65,4.53,7.7,4.6
		c0.02,0.02,0.03,0.04,0.05,0.06C7.8,4.73,7.86,4.8,7.92,4.87c0.01,0.02,0.03,0.04,0.04,0.05c0.06,0.07,0.11,0.14,0.17,0.22
		c0.01,0.02,0.02,0.03,0.03,0.05c0.06,0.08,0.11,0.15,0.17,0.23c0.01,0.01,0.02,0.03,0.03,0.04C8.42,5.53,8.47,5.6,8.53,5.68
		C8.54,5.69,8.55,5.7,8.55,5.71c0.06,0.08,0.11,0.16,0.17,0.24c0.01,0.01,0.01,0.02,0.02,0.03C8.8,6.06,8.86,6.14,8.91,6.23
		c0,0.01,0.01,0.01,0.01,0.02C8.98,6.33,9.04,6.41,9.09,6.5C9.1,6.5,9.1,6.51,9.1,6.51C9.16,6.6,9.21,6.69,9.27,6.77c0,0,0,0,0,0.01
		c0.06,0.09,0.11,0.18,0.17,0.26c0,0,0,0,0,0C9,7.2,8.37,7.43,7.6,7.72c-1.86-3.5-4.23-6.21-6.54-7.63C1.07,0.05,1.09,0.03,1.1,0
		c0.12,0.03,0.24,0.07,0.35,0.1C1.49,0.11,1.52,0.13,1.56,0.14z"/>
	<path class="st7" d="M4.88,12.24c0.39,0.84,1.38,1.21,2.22,0.83c0.84-0.39,1.21-1.38,0.83-2.22c-0.39-0.84-1.38-1.21-2.22-0.83
		C4.87,10.41,4.5,11.4,4.88,12.24z"/>
	<path class="st4" d="M4.81,12.19c0.39,0.84,1.38,1.21,2.22,0.83c0.84-0.39,1.21-1.38,0.83-2.22C7.48,9.96,6.49,9.59,5.64,9.97
		C4.8,10.36,4.43,11.35,4.81,12.19z"/>
	<path class="st7" d="M5.23,12c0.28,0.61,1,0.88,1.62,0.6c0.61-0.28,0.88-1,0.6-1.62c-0.28-0.61-1-0.88-1.62-0.6
		C5.22,10.67,4.95,11.39,5.23,12z"/>
	<path class="st8" d="M5.4,11.92c0.24,0.52,0.85,0.74,1.36,0.51c0.52-0.24,0.74-0.85,0.51-1.36c-0.24-0.52-0.85-0.74-1.36-0.51
		C5.4,10.8,5.17,11.41,5.4,11.92z"/>
	<path class="st9" d="M5.72,12.18C5.63,12.1,5.55,12,5.5,11.88c-0.21-0.46-0.01-1.01,0.46-1.22c0.36-0.17,0.77-0.07,1.04,0.19
		L5.72,12.18z"/>
	<path class="st3" d="M1.29,0.58c0,0-1.65,3.7-0.2,9.23l1.5-0.6C2.59,9.22,1.16,4.2,1.29,0.58z"/>
	<path class="st5" d="M8.15,13.66c0.1,0.02,0.17,0.1,0.2,0.21l0.62,2.39c-0.24,0.1-0.49,0.2-0.75,0.3L6.9,14.51
		c-0.05-0.08-0.06-0.18-0.03-0.25c0.04-0.08,0.08-0.15,0.12-0.22l0.9-0.41C7.99,13.63,8.08,13.64,8.15,13.66z"/>
	<path class="st2" d="M6.56,14.13c0.32-0.71,0.97-0.66,1.28-0.59c0.1,0.02,0.17,0.1,0.2,0.21l0.91,3.49
		c0.07,0.28-0.26,0.42-0.41,0.18l-1.94-3.03C6.54,14.3,6.53,14.2,6.56,14.13z"/>
	<path class="st3" d="M6.56,14.13c0.22-0.5,0.61-0.62,0.92-0.63c-0.3,0.03-0.63,0.17-0.84,0.62c-0.03,0.08-0.02,0.18,0.03,0.25
		l1.94,3.03c0.05,0.08,0.11,0.11,0.18,0.12c-0.09,0.02-0.19,0-0.27-0.11l-1.94-3.03C6.54,14.3,6.53,14.2,6.56,14.13z"/>
</g>
</svg>
