<?xml version="1.0" encoding="utf-8"?>
<!-- Generator: Adobe Illustrator 23.0.3, SVG Export Plug-In . SVG Version: 6.00 Build 0)  -->
<svg version="1.1" id="레이어_1" xmlns="http://www.w3.org/2000/svg" xmlns:xlink="http://www.w3.org/1999/xlink" x="0px"
	 y="0px" viewBox="0 0 20 20" style="enable-background:new 0 0 20 20;" xml:space="preserve">
<style type="text/css">
	.st0{fill:url(#SVGID_1_);}
</style>
<linearGradient id="SVGID_1_" gradientUnits="userSpaceOnUse" x1="10" y1="-1.818989e-12" x2="10" y2="19.9821">
	<stop  offset="0" style="stop-color:#FFEEA6"/>
	<stop  offset="1" style="stop-color:#FFD700"/>
</linearGradient>
<path class="st0" d="M19.22,13.6l-1.85-2.5c-0.53-0.71-0.54-1.68-0.02-2.4l1.8-2.53c1.14-1.61-0.44-3.74-2.31-3.11l-2.95,0.99
	c-0.84,0.28-1.76-0.01-2.29-0.72l-1.85-2.5c-1.18-1.59-3.7-0.74-3.68,1.23L6.1,5.17c0.01,0.88-0.55,1.67-1.39,1.95L1.76,8.12
	c-1.87,0.63-1.85,3.29,0.04,3.88l2.97,0.93c0.84,0.26,1.42,1.04,1.43,1.92l0.03,3.11c0.02,1.97,2.55,2.77,3.7,1.16l1.8-2.53
	c0.51-0.72,1.43-1.03,2.27-0.76l2.97,0.93C18.85,17.35,20.39,15.18,19.22,13.6z"/>
</svg>
