<?xml version="1.0" encoding="utf-8"?>
<!-- Generator: Adobe Illustrator 23.0.3, SVG Export Plug-In . SVG Version: 6.00 Build 0)  -->
<svg version="1.1" id="레이어_1" xmlns="http://www.w3.org/2000/svg" xmlns:xlink="http://www.w3.org/1999/xlink" x="0px"
	 y="0px" viewBox="0 0 500 500" style="enable-background:new 0 0 500 500;" xml:space="preserve">
<style type="text/css">
	.st0{clip-path:url(#SVGID_1_);fill:url(#SVGID_2_);}
	.st1{opacity:0.3;clip-path:url(#SVGID_1_);fill:url(#SVGID_3_);}
	.st2{clip-path:url(#SVGID_1_);fill:none;}
	.st3{clip-path:url(#SVGID_1_);fill:url(#SVGID_4_);}
	.st4{clip-path:url(#SVGID_1_);fill:url(#SVGID_5_);}
	.st5{clip-path:url(#SVGID_1_);fill:url(#SVGID_6_);}
	.st6{opacity:0.4;clip-path:url(#SVGID_1_);fill:url(#SVGID_7_);}
	.st7{opacity:0.4;clip-path:url(#SVGID_1_);fill:url(#SVGID_8_);}
	.st8{opacity:0.3;clip-path:url(#SVGID_1_);fill:url(#SVGID_9_);}
	.st9{opacity:0.3;clip-path:url(#SVGID_1_);fill:url(#SVGID_10_);}
	.st10{opacity:0.3;clip-path:url(#SVGID_1_);fill:url(#SVGID_11_);}
</style>
<g>
	<defs>
		<circle id="SVGID_13_" cx="250" cy="250" r="246.12"/>
	</defs>
	<clipPath id="SVGID_1_">
		<use xlink:href="#SVGID_13_"  style="overflow:visible;"/>
	</clipPath>
	<linearGradient id="SVGID_2_" gradientUnits="userSpaceOnUse" x1="193.5811" y1="8.2045" x2="301.2596" y2="469.6845">
		<stop  offset="0" style="stop-color:#ADAED6"/>
		<stop  offset="1" style="stop-color:#8188C2"/>
	</linearGradient>
	<circle class="st0" cx="250" cy="250" r="246.12"/>
	<linearGradient id="SVGID_3_" gradientUnits="userSpaceOnUse" x1="-1.0385" y1="41.4308" x2="429.8406" y2="41.4308">
		<stop  offset="0" style="stop-color:#ADAED6"/>
		<stop  offset="1" style="stop-color:#8188C2"/>
	</linearGradient>
	<path class="st1" d="M12.45,28.48c-7.94,14.7-7.82,32.26-7.5,48.96c0.1,5.16,0.2,10.38,1.61,15.34c1.75,6.18,5.42,11.6,8.25,17.36
		c7.1,14.44,9,31.11,16.93,45.11c7.93,14,26.05,24.84,39.96,16.74c6.18-3.6,10.01-10.06,14.31-15.77
		c7.95-10.55,18.59-19.41,31.17-23.45c22.41-7.19,48.17,1.43,69.66-8.18c19.04-8.51,30.23-29.49,49.28-37.97
		c19.21-8.55,41.51-2.48,62.45-4.5c27.53-2.66,51.5-19.15,74.09-35.11c12.05-8.51,24.1-17.03,36.15-25.54
		c9.94-7.02,20.92-15.91,21.03-28.08c0.06-6.76-3.4-13.04-7.42-18.48c-17.45-23.62-45.82-36.46-73.84-45.25
		c-69.17-21.69-143.01-24.44-215.33-19.44c-13.08,0.9-26.26,2.08-38.78,5.97C66.66-75.16,43.6-52.49,34.46-24.83
		C30.3-12.22,28.9,1.19,24.47,13.71S11.63,38.44-1.04,42.4"/>
	<circle class="st2" cx="250" cy="250" r="246.12"/>
	<circle class="st2" cx="250" cy="250" r="246.12"/>
	<linearGradient id="SVGID_4_" gradientUnits="userSpaceOnUse" x1="371.7282" y1="115.6493" x2="371.7282" y2="115.6493">
		<stop  offset="0" style="stop-color:#32A2D3"/>
		<stop  offset="1" style="stop-color:#0C6BB0"/>
	</linearGradient>
	<path class="st3" d="M371.73,115.65"/>
	<linearGradient id="SVGID_5_" gradientUnits="userSpaceOnUse" x1="45.8853" y1="453.8904" x2="581.695" y2="453.8904">
		<stop  offset="0" style="stop-color:#ADAED6"/>
		<stop  offset="1" style="stop-color:#8188C2"/>
	</linearGradient>
	<path class="st4" d="M75.79,447.2c6.36,2.04,13.24,1.15,19.83,0.03c12.21-2.07,24.3-4.85,36.19-8.32c9.8-2.86,19.6-6.21,29.79-6.73
		c27.72-1.42,52.32,17.2,80.26,8.54c21.11-6.54,36.41-23.26,54.5-35.02c20.43-13.29,44.33-14.55,68.07-14.01
		c44.49,1.02,87.12-9.53,128.34-25.53c27.16-10.54,54.32-21.08,81.49-31.63c12.85,15.67,7.68,40.11-4.97,55.94
		c-12.64,15.83-30.98,25.82-47.23,37.93c-38.84,28.94-66.7,70.98-106.72,98.27c-53.47,36.45-121.47,42.14-186.08,45.88
		c-18.08,1.05-36.9,1.91-53.57-5.15c-14.96-6.34-26.62-18.42-37.56-30.44c-32.53-35.73-68.87-75.03-92.24-117.51
		C57.81,418.75,62.05,442.8,75.79,447.2z"/>
	<linearGradient id="SVGID_6_" gradientUnits="userSpaceOnUse" x1="130.18" y1="475.4131" x2="469.2689" y2="475.4131">
		<stop  offset="0" style="stop-color:#ADAED6"/>
		<stop  offset="1" style="stop-color:#8188C2"/>
	</linearGradient>
	<path class="st5" d="M231.91,469.99c11.89-5.31,23.6-11.14,36.25-14c14.25-3.23,29,0.29,43.17-2.97
		c13.97-3.21,25.52-12.45,38.44-18.19c38.04-16.89,82.97-2.3,119.47-22.62c0.51,13.64-5.57,26.9-14.31,37.39
		c-8.74,10.49-19.99,18.55-31.38,26.06c-37.64,24.83-78.78,45.23-122.86,54.71c-36.66,7.89-74.48,8.08-111.97,8.24
		c-6.25,0.03-12.6,0.04-18.58-1.75c-5.73-1.71-10.88-5-15.54-8.75c-8.99-7.22-17.94-17.06-22.55-27.77
		c-6.53-15.17,5.36-14.33,17.18-14.04c21.57,0.53,43.23-2.5,63.84-8.91C219.49,475.39,225.72,472.76,231.91,469.99z"/>
	<linearGradient id="SVGID_7_" gradientUnits="userSpaceOnUse" x1="-51.7413" y1="316.2694" x2="411.5375" y2="316.2694">
		<stop  offset="0" style="stop-color:#ADAED6"/>
		<stop  offset="1" style="stop-color:#8188C2"/>
	</linearGradient>
	<path class="st6" d="M10.37,295.34c10.02-0.11,19.8,2.76,29.53,5.17c13.48,3.34,27.36,5.86,41.22,4.81
		c13.85-1.05,27.79-5.97,37.64-15.77c4.91-4.89,8.7-10.86,13.98-15.35c7.73-6.57,17.92-9.36,27.85-11.42
		c19.76-4.09,39.95-6.01,60.13-6c12.86,0.01,25.77,0.79,38.55-0.71c40.65-4.8,74.71-31.82,112.35-47.91
		c7.53-3.22,15.64-6.06,23.75-4.91c8.11,1.15,16.01,7.55,16.17,15.74c0.14,7.09-5.41,13.18-11.71,16.42
		c-6.3,3.25-13.44,4.41-20.17,6.64c-12.11,4.02-22.98,11.68-30.84,21.73c-5.99,7.65-10.27,16.63-17.04,23.6
		c-6.29,6.48-14.38,10.85-22.33,15.13c-18.64,10.03-38.02,20.27-59.14,21.71c-9.21,0.63-18.61-0.44-27.59,1.67
		c-16.63,3.9-28.89,17.89-38.14,32.25c-9.26,14.35-16.97,30.14-29.75,41.46c-20.84,18.47-50.73,21.53-78.49,23.72
		c-24.48,1.93-48.96,3.87-73.44,5.8c-7.67,0.61-15.82,1.12-22.63-2.46c-5.74-3.02-9.71-8.56-12.89-14.22
		c-6.99-12.44-11.1-26.22-13.7-40.2c-2.04-10.96-7.4-29.92-4.6-40.82c2.48-9.69,17.69-18.63,25.77-23.88
		C-14.52,300.63-2.52,295.49,10.37,295.34z"/>
	<linearGradient id="SVGID_8_" gradientUnits="userSpaceOnUse" x1="292.0846" y1="315.9229" x2="537.9257" y2="315.9229">
		<stop  offset="0" style="stop-color:#ADAED6"/>
		<stop  offset="1" style="stop-color:#8188C2"/>
	</linearGradient>
	<path class="st7" d="M453.34,265.27c-4.58,1.25-9.18,2.57-13.4,4.73c-9.86,5.04-16.89,14.23-25.85,20.74
		c-25.75,18.71-63.14,12.89-89.74,30.38c-10.98,7.22-19.19,17.85-27.14,28.32c-2.05,2.7-4.16,5.53-4.87,8.85
		c-1.1,5.16,1.56,10.64,5.71,13.89c4.15,3.26,9.55,4.56,14.82,4.8c18.65,0.82,35.37-10.46,51.05-20.6
		c15.68-10.14,33.89-19.96,52.11-15.89c5.15,1.15,10,3.38,15.09,4.78c7.67,2.11,15.71,2.29,23.66,2.46
		c20.78,0.45,42.58,0.67,61.01-8.95c8.78-4.59,16.74-11.79,19.58-21.28c1.51-5.04,1.49-10.4,1.46-15.66
		c-0.1-15.74,7.05-43.24-13.54-46.17C500.1,252.36,475.54,259.71,453.34,265.27z"/>
	<linearGradient id="SVGID_9_" gradientUnits="userSpaceOnUse" x1="131.7305" y1="127.3003" x2="471.948" y2="127.3003">
		<stop  offset="0" style="stop-color:#ADAED6"/>
		<stop  offset="1" style="stop-color:#8188C2"/>
	</linearGradient>
	<path class="st8" d="M435.72,71.72c-6.71,11.77-17.24,20.87-28.29,28.71c-10.57,7.5-22.47,14.27-35.43,14.54
		c-7.66,0.16-15.15-1.96-22.68-3.35c-16.16-2.97-32.72-2.54-49.14-2.1c-5.79,0.15-11.75,0.35-17.05,2.67
		c-7.96,3.49-13.13,11.12-18.57,17.9c-29.19,36.34-75.43,54.75-121.1,64.04c-3.09,0.63-6.34,1.29-8.73,3.35
		c-6.09,5.25-2.12,16.23,5.17,19.61c7.29,3.38,15.82,1.6,23.64-0.25c18.77-4.42,37.63-8.88,55.47-16.18
		c6.39-2.62,12.67-5.61,19.36-7.29c8.28-2.09,16.93-2.11,25.46-1.94c18.04,0.36,36.22,1.53,54.04-1.29
		c15-2.38,29.4-7.54,43.69-12.68c21.86-7.85,43.71-15.7,65.57-23.56c5.43-1.95,10.9-3.92,15.77-7c7.33-4.64,12.95-11.58,17.38-19.04
		c9.24-15.55,13.75-34.23,10.72-52.06c-2.29-13.48-9.8-29.4-21.6-37.18c-10.62-7-7.35-0.74-7.09,8.16
		C442.59,55.45,440,64.21,435.72,71.72z"/>
	<linearGradient id="SVGID_10_" gradientUnits="userSpaceOnUse" x1="-45.437" y1="205.5685" x2="115.2404" y2="205.5685">
		<stop  offset="0" style="stop-color:#ADAED6"/>
		<stop  offset="1" style="stop-color:#8188C2"/>
	</linearGradient>
	<path class="st9" d="M20.41,187.38c4.95,8.36,10.92,16.37,18.93,21.86c8.01,5.5,18.37,8.21,27.67,5.39
		c7.03-2.13,12.78-7.1,19.09-10.88c6.3-3.78,14.2-6.42,20.91-3.41c9.63,6.59,11.11,22.28,2.88,30.55
		c-3.79,3.81-8.98,5.94-14.23,7.15c-10.58,2.44-21.6,1.46-32.42,0.58c-3.82-0.31-7.83-0.57-11.31,1.04
		c-2.69,1.25-4.75,3.49-6.93,5.49c-13.83,12.67-33.54,16.35-52.22,17.98c-10.66,0.93-22.68,0.91-30.39-6.51
		c-5.59-5.38-7.54-13.55-7.79-21.3c-0.61-19.01,7.56-37.49,19.2-52.53c9.94-12.86,23.49-27.01,37.52-35.22
		C10.81,162.46,12.58,174.16,20.41,187.38z"/>
	<linearGradient id="SVGID_11_" gradientUnits="userSpaceOnUse" x1="35.3131" y1="41.3694" x2="346.9451" y2="41.3694">
		<stop  offset="0" style="stop-color:#ADAED6"/>
		<stop  offset="1" style="stop-color:#8188C2"/>
	</linearGradient>
	<path class="st10" d="M302.92-17.21c8.44-0.18,17.07-0.14,25.08,2.53c8.01,2.67,15.43,8.44,18,16.49
		c3.4,10.68-2.74,22.58-11.85,29.1c-9.11,6.52-20.54,8.75-31.64,10.27c-16.05,2.19-32.25,3.21-48.44,3.07
		c-11.45-0.1-22.98-0.79-34.3,0.99c-21.53,3.37-40.57,15.29-60.11,24.93C128.06,85.76,93.76,95.84,58.76,99.84
		c-21.04,2.4-27.54-21.14-21.02-38.54c6.04-16.11,31.12-23.04,45.28-29.33c44.39-19.71,91.3-33.73,139.22-41.66
		C248.91-14.11,275.89-16.63,302.92-17.21z"/>
</g>
</svg>
