<?xml version="1.0" encoding="utf-8"?>
<!-- Generator: Adobe Illustrator 23.0.3, SVG Export Plug-In . SVG Version: 6.00 Build 0)  -->
<svg version="1.1" id="레이어_1" xmlns="http://www.w3.org/2000/svg" xmlns:xlink="http://www.w3.org/1999/xlink" x="0px"
	 y="0px" viewBox="0 0 500 500" style="enable-background:new 0 0 500 500;" xml:space="preserve">
<style type="text/css">
	.st0{clip-path:url(#SVGID_1_);fill:url(#SVGID_2_);}
	.st1{clip-path:url(#SVGID_1_);fill:#173C65;}
	.st2{clip-path:url(#SVGID_1_);fill:#284D82;}
	.st3{clip-path:url(#SVGID_1_);fill:url(#SVGID_3_);}
	.st4{fill:#173C65;}
	.st5{fill:#214876;}
</style>
<g>
	<g>
		<defs>
			<circle id="SVGID_5_" cx="250" cy="250.23" r="243.13"/>
		</defs>
		<clipPath id="SVGID_1_">
			<use xlink:href="#SVGID_5_"  style="overflow:visible;"/>
		</clipPath>
		<linearGradient id="SVGID_2_" gradientUnits="userSpaceOnUse" x1="122.0754" y1="46.2441" x2="371.959" y2="444.7071">
			<stop  offset="0" style="stop-color:#0C6BB0"/>
			<stop  offset="1" style="stop-color:#535286"/>
		</linearGradient>
		<circle class="st0" cx="250" cy="250.23" r="243.13"/>
		<path class="st1" d="M161.17,494.34c23.14-14.13,35.43-43.78,61.07-52.6c6.44-2.21,13.39-2.94,19.52-5.89
			c6.16-2.96,11.06-7.93,16.23-12.39c5.17-4.46,11.07-8.63,17.86-9.38c6.79-0.75,14.5,3.07,15.95,9.75
			c0.39,1.81,0.33,3.74,1.09,5.43c1.77,3.91,6.96,4.72,11.23,4.36c4.28-0.36,8.96-1.25,12.57,1.07c5.02,3.22,4.92,10.76,2.5,16.21
			c-2.43,5.45-6.55,10.16-7.97,15.95c-2.15,8.78,2.33,18.15,0.31,26.96c-2.48,10.76-13.53,16.99-23.73,21.22
			c-37.79,15.67-79.34,22.16-120.11,18.77c-4.82-0.4-9.7-0.96-14.15-2.85c-3.11-1.32-5.91-3.25-8.68-5.17
			c-5.75-3.98-22.98-11.52-14.34-19.12C137.79,500.26,152.51,499.62,161.17,494.34z"/>
		<path class="st2" d="M161.17,501.93c23.14-14.13,35.43-43.78,61.07-52.6c6.44-2.21,13.39-2.94,19.52-5.89
			c6.16-2.96,11.06-7.93,16.23-12.39c5.17-4.46,11.07-8.63,17.86-9.38c6.79-0.75,14.5,3.07,15.95,9.75
			c0.39,1.81,0.33,3.74,1.09,5.43c1.77,3.91,6.96,4.72,11.23,4.36c4.28-0.36,8.96-1.25,12.57,1.07c5.02,3.22,4.92,10.76,2.5,16.21
			c-2.43,5.45-6.55,10.16-7.97,15.95c-2.15,8.78,2.33,18.15,0.31,26.96c-2.48,10.76-13.53,16.99-23.73,21.22
			c-37.79,15.67-79.34,22.16-120.11,18.77c-4.82-0.4-9.7-0.96-14.15-2.85c-3.11-1.32-5.91-3.25-8.68-5.17
			c-5.75-3.98-22.98-11.52-14.34-19.12C137.79,507.85,152.51,507.22,161.17,501.93z"/>
		<linearGradient id="SVGID_3_" gradientUnits="userSpaceOnUse" x1="191.2315" y1="355.0857" x2="126.2278" y2="49.485">
			<stop  offset="0" style="stop-color:#0C6BB0;stop-opacity:0"/>
			<stop  offset="1" style="stop-color:#535286"/>
		</linearGradient>
		<path class="st3" d="M53.75,61.35c-4.3,5.44-9.09,10.49-13.12,16.13c-15.53,21.73-18.38,49.96-17.96,76.66
			c0.36,23.04,3.5,47.82,19,64.87c3.88,4.27,8.58,7.99,14.1,9.7c10.27,3.18,21.48-1.04,32.08,0.74
			c14.43,2.41,24.93,15.54,29.78,29.34c4.85,13.8,5.41,28.68,8.26,43.03c5.89,29.73,25.32,59.8,55.06,65.58
			c2.89,0.56,5.98,0.87,8.72-0.23c2.26-0.9,4.04-2.67,5.66-4.49c15.44-17.38,19.73-43.88,10.54-65.24
			c-2.96-6.88-7.16-13.19-10-20.12c-4.23-10.33-5.29-21.93-2.99-32.85c1.46-6.97,4.23-13.59,6.31-20.4c7.32-24,5.73-50.6-4.4-73.55
			c-6.62-14.99-16.6-28.21-25.04-42.26c-10.13-16.87-18.22-35.59-18.91-55.25c-0.69-19.67,7.08-40.41,23.3-51.56
			c15.1-10.39,35.05-11.29,50.62-20.96c7.83-4.86,14.8-14.27,11.15-22.73c-3.17-7.34-12.32-9.57-20.22-10.8
			c-13.82-2.15-27.86-4.11-41.75-2.53c-16.37,1.86-31.6,8.46-47.18,13.39c-10.51,3.32-32.42,2.26-37.86,11.65
			c-3.41,5.88-3.5,17.42-5.14,24.13c-1.95,8.03-4.17,16.01-6.87,23.82C71.45,33.13,64.11,48.27,53.75,61.35z"/>
		<path class="st1" d="M-20.41,224.98c6.79-15.61,13.79-31.56,25.42-43.99c20.63-22.06,52.56-29.59,82.73-30.87
			c30.18-1.28,60.6,2.55,90.51-1.64c56.31-7.9,105.9-44.25,139.37-90.21c33.47-45.96,52.44-100.92,65.53-156.25
			c35.08,17.48,62.81,47.32,83.73,80.47c20.92,33.15,35.62,69.77,50.2,106.15c5.28,13.17,10.63,26.68,11.09,40.87
			c0.85,26.03-14.64,49.43-29.49,70.82c-5.42,7.8-10.94,15.71-18.26,21.76c-13.53,11.17-31.72,14.8-49.21,16.17
			c-96.93,7.58-193.14-42.31-289.07-26.49c-13.98,2.31-27.92,6.08-40.11,13.32c-22.66,13.47-36.8,37.22-50.81,59.55
			c-22.85,36.46-47.77,71.62-74.58,105.27c-8.18-27.39-23.54-59.27-26.36-87.61C-51.9,280.33-30.43,245.03-20.41,224.98z"/>
		<path class="st2" d="M-11.97,232.58c6.79-15.61,13.79-31.56,25.42-43.99c20.63-22.06,52.56-29.59,82.73-30.87
			c30.18-1.28,60.6,2.55,90.51-1.64c56.31-7.9,105.9-44.25,139.37-90.21c33.47-45.96,52.44-100.92,65.53-156.25
			c35.08,17.48,62.81,47.32,83.73,80.47c20.92,33.15,35.62,69.77,50.2,106.15c5.28,13.17,10.63,26.68,11.09,40.87
			c1.71,52.36-45.51,104.73-96.97,108.76c-85.03,6.65-166.06-30.17-250.76-29.64c-26.08,0.16-53.03,4.16-76.34,16.45
			c-24.92,13.14-38.39,36.46-52.88,59.57c-22.85,36.46-47.77,71.62-74.58,105.27c-8.18-27.39-23.54-59.27-26.36-87.61
			C-43.46,287.93-21.99,252.62-11.97,232.58z"/>
		<path class="st1" d="M135.12,369.4c9.42-8.59,18.52-17.79,29.68-23.96c20.91-11.57,46.08-11.07,69.97-11.65
			c107.18-2.59,213.56-33.43,305.5-88.57c15.15-9.09,30.46-19.38,39.27-34.69c-2.38,28.44-18.85,53.53-35.39,76.79
			c-10.22,14.37-20.83,28.75-34.51,39.88c-26.65,21.69-61.92,28.82-95.67,35.26c-33.54,6.4-67.26,12.83-101.4,13.54
			c-25.79,0.54-51.84-2.17-77.22,2.45c-61.01,11.09-106.32,61.42-161.44,89.82c-5.69,2.93-11.67,5.68-18.06,6.06
			c-13.25,0.8-24.65-8.83-30.7-19.86c-4.7-8.57-12.45-28.61-5.13-37.48c6.05-7.33,20.26-5.23,28.55-5.6
			c15.79-0.72,30.62-4.61,44.73-11.78C108.7,391.8,122.41,380.99,135.12,369.4z"/>
		<path class="st2" d="M135.12,376.15c9.42-8.59,18.52-17.79,29.68-23.96c20.91-11.57,46.08-11.07,69.97-11.65
			c107.18-2.59,213.56-33.43,305.5-88.57c15.15-9.09,30.46-19.38,39.27-34.7c-2.38,28.44-18.85,53.53-35.39,76.79
			c-10.22,14.37-20.83,28.75-34.51,39.88c-26.65,21.69-61.92,28.82-95.67,35.26c-33.54,6.4-67.26,12.83-101.4,13.54
			c-25.79,0.54-51.84-2.17-77.22,2.45c-61.01,11.09-106.32,61.42-161.44,89.82c-5.69,2.93-11.67,5.68-18.06,6.06
			c-13.25,0.8-24.65-8.83-30.7-19.86c-4.7-8.57-12.45-28.61-5.13-37.48c6.05-7.33,20.26-5.23,28.55-5.6
			c15.79-0.72,30.62-4.61,44.73-11.77C108.7,398.55,122.41,387.74,135.12,376.15z"/>
	</g>
	<g>
		<path class="st4" d="M362.17,185.64c0,6-7.79,10.87-17.39,10.87c-9.61,0-17.39-4.87-17.39-10.87c0-6,7.79-10.87,17.39-10.87
			C354.38,174.77,362.17,179.64,362.17,185.64z"/>
		<path class="st5" d="M362.17,186.53c0,5.52-7.15,9.99-15.98,9.99s-15.98-4.47-15.98-9.99c0-5.52,7.15-9.99,15.98-9.99
			S362.17,181.01,362.17,186.53z"/>
	</g>
	<g>
		<path class="st4" d="M274.79,277.45c0,6-7.79,10.87-17.39,10.87c-9.61,0-17.39-4.87-17.39-10.87c0-6,7.79-10.87,17.39-10.87
			C267.01,266.58,274.79,271.45,274.79,277.45z"/>
		<path class="st5" d="M274.79,278.34c0,5.52-7.15,9.99-15.98,9.99c-8.83,0-15.98-4.47-15.98-9.99c0-5.52,7.15-9.99,15.98-9.99
			C267.64,268.35,274.79,272.82,274.79,278.34z"/>
	</g>
	<g>
		<path class="st4" d="M368.77,110.35c-1.98,3.61-8.28,3.96-14.05,0.79c-5.78-3.17-8.85-8.67-6.87-12.29
			c1.98-3.61,8.28-3.96,14.05-0.79C367.68,101.24,370.76,106.74,368.77,110.35z"/>
		<path class="st5" d="M368.48,110.88c-1.82,3.32-7.6,3.64-12.91,0.73c-5.31-2.92-8.13-7.97-6.31-11.29
			c1.82-3.32,7.6-3.64,12.91-0.73C367.48,102.51,370.3,107.56,368.48,110.88z"/>
	</g>
	<g>
		<path class="st4" d="M445.11,185.45c-2.26,3.44-8.56,3.3-14.07-0.32c-5.51-3.62-8.14-9.35-5.88-12.79
			c2.26-3.44,8.56-3.3,14.07,0.32C444.74,176.28,447.37,182,445.11,185.45z"/>
		
			<ellipse transform="matrix(0.5492 -0.8357 0.8357 0.5492 46.0096 445.1529)" class="st5" cx="435.61" cy="179.93" rx="6.85" ry="10.97"/>
	</g>
	<g>
		<path class="st4" d="M122.9,359.55c0,4.12-5.34,7.46-11.94,7.46c-6.59,0-11.94-3.34-11.94-7.46c0-4.12,5.34-7.46,11.94-7.46
			C117.55,352.09,122.9,355.43,122.9,359.55z"/>
		<path class="st5" d="M122.9,360.16c0,3.79-4.91,6.85-10.97,6.85c-6.06,0-10.97-3.07-10.97-6.85c0-3.79,4.91-6.85,10.97-6.85
			C117.99,353.3,122.9,356.37,122.9,360.16z"/>
	</g>
	<g>
		<path class="st4" d="M232.85,71.68c0,4.12-5.34,7.46-11.94,7.46c-6.59,0-11.94-3.34-11.94-7.46c0-4.12,5.34-7.46,11.94-7.46
			C227.51,64.22,232.85,67.56,232.85,71.68z"/>
		<path class="st5" d="M232.85,72.28c0,3.79-4.91,6.85-10.97,6.85c-6.06,0-10.97-3.07-10.97-6.85c0-3.79,4.91-6.85,10.97-6.85
			C227.94,65.43,232.85,68.5,232.85,72.28z"/>
	</g>
	<g>
		<path class="st4" d="M91.42,210.02c0,2.45-3.17,4.43-7.09,4.43c-3.91,0-7.09-1.98-7.09-4.43c0-2.45,3.17-4.43,7.09-4.43
			C88.25,205.59,91.42,207.57,91.42,210.02z"/>
		<path class="st5" d="M91.42,210.38c0,2.25-2.91,4.07-6.51,4.07s-6.51-1.82-6.51-4.07c0-2.25,2.92-4.07,6.51-4.07
			S91.42,208.13,91.42,210.38z"/>
	</g>
	<g>
		<path class="st4" d="M384.36,411.09c0,2.45-3.17,4.43-7.09,4.43c-3.91,0-7.09-1.98-7.09-4.43s3.17-4.43,7.09-4.43
			C381.18,406.66,384.36,408.64,384.36,411.09z"/>
		<path class="st5" d="M384.36,411.45c0,2.25-2.92,4.07-6.51,4.07c-3.6,0-6.51-1.82-6.51-4.07c0-2.25,2.91-4.07,6.51-4.07
			C381.44,407.38,384.36,409.2,384.36,411.45z"/>
	</g>
	<g>
		<path class="st4" d="M118.68,102.35c0,2.45-3.17,4.43-7.09,4.43c-3.91,0-7.09-1.98-7.09-4.43c0-2.45,3.17-4.43,7.09-4.43
			C115.5,97.92,118.68,99.9,118.68,102.35z"/>
		<path class="st5" d="M118.68,102.71c0,2.25-2.91,4.07-6.51,4.07c-3.6,0-6.51-1.82-6.51-4.07c0-2.25,2.92-4.07,6.51-4.07
			C115.76,98.64,118.68,100.46,118.68,102.71z"/>
	</g>
	<g>
		<path class="st4" d="M251.42,171.99c0,4.12-5.34,7.46-11.94,7.46c-6.59,0-11.94-3.34-11.94-7.46c0-4.12,5.34-7.46,11.94-7.46
			C246.07,164.53,251.42,167.87,251.42,171.99z"/>
		<ellipse class="st5" cx="240.45" cy="172.6" rx="10.97" ry="6.85"/>
	</g>
</g>
</svg>
