<?xml version="1.0" encoding="utf-8"?>
<!-- Generator: Adobe Illustrator 23.0.3, SVG Export Plug-In . SVG Version: 6.00 Build 0)  -->
<svg version="1.1" id="레이어_1" xmlns="http://www.w3.org/2000/svg" xmlns:xlink="http://www.w3.org/1999/xlink" x="0px"
	 y="0px" viewBox="0 0 500 500" style="enable-background:new 0 0 500 500;" xml:space="preserve">
<style type="text/css">
	.st0{clip-path:url(#SVGID_1_);fill:#DF716A;}
	.st1{opacity:0.2;clip-path:url(#SVGID_1_);fill:#CC5A56;}
	.st2{clip-path:url(#SVGID_1_);fill:#B84543;}
	.st3{clip-path:url(#SVGID_1_);fill:#CC5A56;}
	.st4{opacity:0.2;clip-path:url(#SVGID_1_);fill:#DF716A;}
	.st5{clip-path:url(#SVGID_1_);}
	.st6{fill:#B84543;}
	.st7{fill:#CC5A56;}
	.st8{opacity:0.2;fill:#DF716A;}
</style>
<g>
	<defs>
		<circle id="SVGID_3_" cx="250.11" cy="250" r="241.1"/>
	</defs>
	<clipPath id="SVGID_1_">
		<use xlink:href="#SVGID_3_"  style="overflow:visible;"/>
	</clipPath>
	<circle class="st0" cx="250.11" cy="250" r="241.1"/>
	<path class="st1" d="M237.22,360.67c17.08,4.43,34.16,14.82,52.77,20.96c21.66,7.15,44.77,8.66,67.44,8.26
		c17.73-0.31,39.51-9.07,56.3,0.2c43.96,24.28,16.03,87.86-2.66,119.51c-17.22,29.16-44.48,54.7-78.03,62.94
		c-44.08,10.83-90.56-8.36-132.92,12.74c-18.51,9.22-35.78,21.43-55.67,27.09c-87.81,25.02-100.72-104.5-97-161.42
		c0.67-10.21,4.1-21.13,12.62-26.79c17.25-11.46,41.54,0.6,60.94-3.06c28.65-5.41,47.27-32.76,68.61-50.07
		C206.22,357.56,221.71,356.65,237.22,360.67z"/>
	<path class="st2" d="M119.57,125.94c3.54,0.92,7.09,3.07,10.95,4.35c4.49,1.48,9.29,1.8,13.99,1.71c3.68-0.06,8.19-1.88,11.68,0.04
		c9.12,5.04,3.33,18.22-0.55,24.79c-3.57,6.05-9.23,11.34-16.19,13.06c-9.14,2.25-18.78-1.74-27.57,2.64
		c-3.84,1.91-7.42,4.44-11.55,5.62c-18.21,5.19-20.89-21.67-20.12-33.48c0.14-2.12,0.85-4.38,2.62-5.56
		c3.58-2.38,8.61,0.12,12.64-0.63c5.94-1.12,9.8-6.79,14.23-10.39C113.15,125.3,116.36,125.11,119.57,125.94z"/>
	<path class="st3" d="M124.6,130.97c3.54,0.92,7.09,3.07,10.95,4.35c4.49,1.48,9.29,1.8,13.99,1.71c3.68-0.06,8.19-1.88,11.68,0.04
		c9.12,5.04,3.33,18.22-0.55,24.79c-3.57,6.05-9.23,11.34-16.19,13.06c-9.14,2.25-18.78-1.74-27.57,2.64
		c-3.84,1.91-7.42,4.44-11.55,5.62c-18.21,5.19-20.89-21.67-20.12-33.48c0.14-2.12,0.85-4.38,2.62-5.56
		c3.58-2.38,8.61,0.12,12.64-0.63c5.94-1.12,9.8-6.79,14.23-10.39C118.17,130.32,121.38,130.13,124.6,130.97z"/>
	<path class="st4" d="M-90.69,192.88c-9.23,19.7-4.51,47.65-4.67,68.86c-0.15,20.14,3.86,39.74,24.02,48.34
		c15.86,6.77,35.15,8.44,51.5,0.97c13.55-6.19,23.28-18.09,33.01-28.94c10.2-11.38,22.23-18.61,35.8-25.73
		c29.31-15.37,60.73-26.08,90.67-40.09c11.65-5.45,32.67-14.19,32.01-29.76c-0.5-11.8-13.28-18.66-24.43-22.57
		c-38.2-13.4-78.32-20.34-118.21-27.23c-11.58-2-23.44-4-35.02-1.99c-18.59,3.24-36.13,15.16-52.99,23.21
		C-71.82,164.07-83.53,177.59-90.69,192.88z"/>
	<g class="st5">
		<path class="st6" d="M300.86,352.43c7.61,1.97,15.23,6.61,23.53,9.35c9.66,3.19,19.96,3.86,30.07,3.68
			c7.91-0.14,17.61-4.04,25.1,0.09c19.6,10.82,7.15,39.17-1.18,53.28c-7.68,13-19.83,24.39-34.79,28.06
			c-19.65,4.83-40.38-3.73-59.26,5.68c-8.25,4.11-15.95,9.55-24.82,12.08c-39.15,11.15-44.91-46.59-43.25-71.97
			c0.3-4.55,1.83-9.42,5.63-11.94c7.69-5.11,18.52,0.27,27.17-1.36c12.78-2.41,21.08-14.6,30.59-22.32
			C287.04,351.05,293.95,350.64,300.86,352.43z"/>
		<path class="st7" d="M305.04,358.71c7.61,1.97,15.23,6.61,23.53,9.35c9.66,3.19,19.96,3.86,30.07,3.68
			c7.91-0.14,17.61-4.04,25.1,0.09c19.6,10.82,7.15,39.17-1.18,53.28c-7.68,13-19.83,24.39-34.79,28.06
			c-19.65,4.83-40.38-3.73-59.26,5.68c-8.25,4.11-15.95,9.55-24.82,12.08c-39.15,11.15-44.91-46.59-43.25-71.97
			c0.3-4.55,1.83-9.42,5.63-11.94c7.69-5.11,18.52,0.27,27.17-1.36c12.78-2.41,21.08-14.6,30.59-22.32
			C291.22,357.32,298.13,356.92,305.04,358.71z"/>
	</g>
	<g class="st5">
		<path class="st6" d="M55.88,359.28c-3.37-8.67-4.55-18.47-6.42-27.34c-0.48-2.31-0.86-4.62-1.07-6.93
			c-1.51-16.7,10.38-34.33,27.63-36.37c10.8-1.28,21.79,2.35,30.53,8.63c10.76,7.74,14.44,20.96,18.49,33.08
			c2.14,6.4,4.4,12.86,8.16,18.51c4.25,6.4,10.75,10.82,14.8,17.4c16.23,26.33-24.81,42.44-43.71,46.46
			c-3.39,0.72-7.26,0.61-9.89-1.65c-5.56-4.77-3.66-13.5-6.6-19.6c-4.26-8.82-15.2-11.5-22.16-17.62
			C61.02,369.81,58.01,364.78,55.88,359.28z"/>
		<path class="st7" d="M62.99,363.47c-3.37-8.67-4.55-18.47-6.42-27.34c-0.48-2.31-0.86-4.62-1.07-6.93
			c-1.51-16.7,10.38-34.33,27.63-36.37c10.8-1.28,21.79,2.35,30.53,8.63c10.76,7.74,14.44,20.96,18.49,33.08
			c2.14,6.4,4.4,12.86,8.16,18.51c4.25,6.4,10.75,10.82,14.8,17.4c16.23,26.33-24.81,42.44-43.71,46.46
			c-3.39,0.72-7.26,0.61-9.89-1.65c-5.56-4.77-3.66-13.5-6.61-19.6c-4.26-8.82-15.19-11.5-22.16-17.62
			C68.13,374,65.12,368.96,62.99,363.47z"/>
	</g>
	<g class="st5">
		<path class="st6" d="M283.69,223.03c12.03,1.86,26.78,6.6,37.03,13.35c3.87,2.55,7.24,6.11,8.69,10.52
			c1.37,4.17,1.47,8.56-1,12.37c-1.9,2.93-4.82,5.08-7.94,6.65c-13.06,6.58-28.71,5.09-42.15,11.1c-4.72,2.11-8.69,6-13.71,7.31
			c-10.87,2.84-16.81-15.7-17.38-23.44c-0.9-12.24,6.39-27.06,16.02-34.44C268.63,222.32,276.02,221.84,283.69,223.03z"/>
		<path class="st7" d="M287.88,228.47c12.03,1.86,26.78,6.6,37.03,13.35c3.87,2.55,7.24,6.11,8.69,10.52
			c1.37,4.17,1.47,8.56-1,12.37c-1.9,2.93-4.82,5.08-7.94,6.65c-13.06,6.58-28.71,5.09-42.15,11.1c-4.72,2.11-8.69,6-13.71,7.31
			c-10.87,2.84-16.81-15.7-17.38-23.44c-0.9-12.24,6.39-27.06,16.02-34.44C272.82,227.76,280.21,227.28,287.88,228.47z"/>
	</g>
	<g class="st5">
		<path class="st6" d="M161.88,218c12.03,1.86,26.78,6.6,37.03,13.35c3.87,2.55,7.24,6.11,8.69,10.52c1.37,4.17,1.47,8.56-1,12.37
			c-1.9,2.93-4.82,5.08-7.94,6.65c-13.06,6.58-28.71,5.09-42.15,11.1c-4.72,2.11-8.69,6-13.71,7.31
			c-10.87,2.84-16.81-15.7-17.38-23.44c-0.9-12.24,6.39-27.06,16.02-34.44C146.82,217.29,154.21,216.82,161.88,218z"/>
		<path class="st7" d="M166.07,223.44c12.03,1.86,26.78,6.6,37.03,13.35c3.87,2.55,7.24,6.11,8.69,10.52
			c1.37,4.17,1.47,8.56-1,12.37c-1.9,2.93-4.82,5.08-7.94,6.65c-13.06,6.58-28.71,5.09-42.15,11.1c-4.72,2.11-8.69,6-13.71,7.31
			c-10.87,2.84-16.81-15.7-17.38-23.44c-0.9-12.24,6.39-27.06,16.02-34.44C151.01,222.74,158.4,222.26,166.07,223.44z"/>
	</g>
	<g class="st5">
		<path class="st6" d="M447.79,237.56c-3.26-13.31-6.9-26.52-10.92-39.62c-0.46-1.51-0.97-3.08-2.08-4.21
			c-1.12-1.13-2.71-1.64-4.17-2.27c-5.77-2.48-10.42-7.42-12.55-13.33c-2.44-6.78-2.02-15.22-7.54-19.85
			c-2.06-1.73-4.67-2.63-7.21-3.49c-5.01-1.69-10.18-3.4-15.46-3.04c-7.89,0.54-15.21,6.14-17.78,13.62
			c-2.57,7.48-0.25,16.4,5.65,21.67c3.1,2.77,7.08,4.62,9.53,7.99c2.74,3.77,3.05,8.72,3.24,13.37c0.53,12.68,0.9,25.58-2.32,37.85
			c-1.35,5.14-3.31,10.11-4.64,15.26c-1.38,5.32-2.09,10.89-1.27,16.33c1.14,7.58,5.22,14.52,10.66,19.92
			c5.44,5.39,12.18,9.33,19.23,12.34c2.86,1.22,5.84,2.31,8.94,2.51c5.15,0.33,10.1-1.79,14.82-3.86c3.99-1.76,8.08-3.58,11.18-6.64
			c4.65-4.61,6.4-11.33,7.63-17.76c1.73-9.05,4.04-19.59,3.19-28.84C455.31,248.85,449.42,244.2,447.79,237.56z"/>
		<path class="st7" d="M453.8,239.83c-3.26-13.31-6.9-26.52-10.92-39.62c-0.46-1.51-0.97-3.08-2.08-4.2
			c-1.12-1.13-2.71-1.64-4.17-2.27c-5.76-2.48-10.42-7.42-12.54-13.33c-2.44-6.78-2.02-15.22-7.54-19.85
			c-2.06-1.73-4.67-2.63-7.21-3.49c-5.01-1.69-10.18-3.4-15.46-3.04c-7.89,0.54-15.21,6.14-17.78,13.62
			c-2.57,7.48-0.25,16.4,5.65,21.67c3.1,2.77,7.08,4.62,9.53,7.99c2.74,3.77,3.05,8.72,3.24,13.37c0.53,12.68,0.9,25.58-2.32,37.85
			c-1.35,5.15-3.31,10.11-4.64,15.26c-1.38,5.32-2.09,10.89-1.27,16.33c1.14,7.58,5.22,14.52,10.66,19.92
			c5.44,5.39,12.18,9.33,19.23,12.34c2.86,1.22,5.84,2.31,8.94,2.51c5.15,0.33,10.1-1.79,14.82-3.86c3.99-1.76,8.08-3.58,11.18-6.64
			c4.65-4.61,6.4-11.33,7.63-17.76c1.73-9.05,4.04-19.59,3.19-28.84C461.31,251.11,455.43,246.47,453.8,239.83z"/>
		<path class="st8" d="M365,87.06c-5.03,12.82-8.76,26.39-16.63,37.69c-10.23,14.68-26.41,23.99-42.59,31.63
			c-16.18,7.64-33.13,14.23-47.16,25.34c-14.02,11.11-24.96,28-23.57,45.83c25.35,7.47,52.68-15.63,77.69-7.1
			c7.02,2.4,13.15,7.16,20.38,8.82c17.04,3.93,32.88-10.34,42.06-25.22c9.18-14.88,16.06-32.35,30.75-41.84
			c12.31-7.95,27.9-8.69,42.51-7.56c14.61,1.14,29.29,3.9,43.83,2.01c14.54-1.89,29.46-9.64,34.84-23.28
			c2.32-5.86,2.69-12.29,3.04-18.59c0.79-14.34,1.52-29.08-3.02-42.7c-6.14-18.4-21.05-32.34-35.91-44.81
			c-10.66-8.95-21.86-17.74-34.98-22.38C407.05-12.45,379.4,50.36,365,87.06z"/>
	</g>
	<g class="st5">
		<path class="st6" d="M194.3,72.43c-2.25,7.83,1.15,17.89,2.34,25.75c1.14,7.46,3.78,14.47,11.74,16.46
			c6.27,1.57,13.5,1.04,19.11-2.68c4.65-3.09,7.54-8.07,10.5-12.66c3.1-4.81,7.12-8.2,11.72-11.63
			c9.93-7.42,20.92-13.24,31.17-20.19c3.99-2.7,11.25-7.18,10.08-12.9c-0.88-4.33-6.02-6.12-10.37-6.9
			c-14.92-2.7-30.17-2.9-45.33-3.09c-4.4-0.06-8.91-0.09-13.07,1.34c-6.69,2.3-12.47,7.74-18.23,11.72
			C199.58,60.66,196.05,66.35,194.3,72.43z"/>
		<path class="st7" d="M200.35,73.57c-2.25,7.83,1.15,17.89,2.34,25.75c1.14,7.46,3.78,14.47,11.74,16.46
			c6.27,1.57,13.5,1.04,19.11-2.68c4.65-3.09,7.54-8.07,10.5-12.66c3.1-4.81,7.12-8.2,11.72-11.63
			c9.93-7.42,20.92-13.24,31.17-20.19c3.99-2.7,11.25-7.18,10.08-12.9c-0.88-4.33-6.02-6.12-10.37-6.9
			c-14.92-2.7-30.17-2.9-45.33-3.09c-4.4-0.06-8.91-0.09-13.07,1.34c-6.69,2.3-12.47,7.74-18.23,11.72
			C205.62,61.8,202.09,67.49,200.35,73.57z"/>
	</g>
</g>
</svg>
