<?xml version="1.0" encoding="utf-8"?>
<!-- Generator: Adobe Illustrator 23.0.3, SVG Export Plug-In . SVG Version: 6.00 Build 0)  -->
<svg version="1.1" id="레이어_1" xmlns="http://www.w3.org/2000/svg" xmlns:xlink="http://www.w3.org/1999/xlink" x="0px"
	 y="0px" viewBox="0 0 500 287.26" style="enable-background:new 0 0 500 287.26;" xml:space="preserve">
<style type="text/css">
	.st0{fill:#8188C2;}
	.st1{clip-path:url(#SVGID_1_);fill:url(#SVGID_2_);}
	.st2{opacity:0.5;clip-path:url(#SVGID_1_);fill:url(#SVGID_3_);}
	.st3{opacity:0.5;clip-path:url(#SVGID_1_);fill:url(#SVGID_4_);}
	.st4{clip-path:url(#SVGID_1_);fill:url(#SVGID_5_);}
	.st5{clip-path:url(#SVGID_1_);fill:url(#SVGID_6_);}
	.st6{clip-path:url(#SVGID_1_);fill:url(#SVGID_7_);}
	.st7{fill:#FFFFFF;}
</style>
<g>
	<g>
		<g id="XMLID_35_">
			<g>
				<path class="st0" d="M219.9,84.73c6.18-3.16,12.33-6.25,18.48-9.23l1.44,2.88c-6.08,2.98-12.21,6.05-18.36,9.21
					C96.19,151.94,7.63,229.6,23.67,261.04c15.28,29.9,119.61,7.25,237.55-50.37l1.44,2.88c-124.8,60.94-239.73,87.22-255.84,55.76
					C-10.09,236.29,88.16,152.2,219.9,84.73z"/>
				<path class="st0" d="M279.6,201.45C404.87,137.1,493.43,59.44,477.35,27.99c-15.24-29.89-119.59-7.23-237.54,50.4l-1.44-2.88
					C363.2,14.55,478.11-11.76,494.23,19.71c16.91,33.02-81.36,117.15-213.09,184.61c-6.18,3.16-12.33,6.25-18.48,9.23l-1.44-2.88
					C267.32,207.67,273.45,204.6,279.6,201.45z"/>
			</g>
		</g>
	</g>
	<g>
		<defs>
			<circle id="SVGID_9_" cx="250.52" cy="144.51" r="139.43"/>
		</defs>
		<clipPath id="SVGID_1_">
			<use xlink:href="#SVGID_9_"  style="overflow:visible;"/>
		</clipPath>
		<linearGradient id="SVGID_2_" gradientUnits="userSpaceOnUse" x1="202.2282" y1="12.9285" x2="297.1213" y2="271.464">
			<stop  offset="0.0459" style="stop-color:#F2CB5C"/>
			<stop  offset="1" style="stop-color:#F09E2B"/>
		</linearGradient>
		<circle class="st1" cx="250.52" cy="144.51" r="139.43"/>
		<linearGradient id="SVGID_3_" gradientUnits="userSpaceOnUse" x1="316.0748" y1="1.7082" x2="295.7405" y2="63.4373">
			<stop  offset="0.0459" style="stop-color:#F2CB5C"/>
			<stop  offset="1" style="stop-color:#F09E2B"/>
		</linearGradient>
		<path class="st2" d="M240.41,47.58c10.29,10.12,26.94,9.47,40.97,6.04c8.43-2.07,15.58,0.81,20.92,7.54
			c3.14,3.96,5.54,8.49,8.89,12.28c11.51,13.05,45.47,16.98,57.39,2.22c8.06-9.97,5.89-27.91,2.23-39.16
			c-4.26-13.11-12.71-24.93-23.72-33.22c-25.41-19.13-60.32-20.46-89.93-11.82c-10.19,2.97-17.23,6.34-21.33,16.5
			C230.7,20.7,229.9,37.25,240.41,47.58z"/>
		<linearGradient id="SVGID_4_" gradientUnits="userSpaceOnUse" x1="81.9725" y1="114.4114" x2="176.0348" y2="114.4114">
			<stop  offset="0.0459" style="stop-color:#F2CB5C"/>
			<stop  offset="1" style="stop-color:#F09E2B"/>
		</linearGradient>
		<path class="st3" d="M165.81,13.73c4.1,7.25,7.54,15.75,9.56,23.82c3.15,12.59-5.68,23.55-10.48,34.39
			c-4.58,10.33-0.64,19.34,3.8,28.83c4.76,10.18,6.43,21.86,4.55,33.25c-1.48,8.99-5.94,16.44-8.93,24.88
			c-3.44,9.73-4.08,20.07-4.25,30.3c-0.17,9.93-0.76,22.48-8.81,29.79c-10.1,9.18-27.36,6.26-37.34-1.51
			c-11.87-9.24-17.79-24.04-22.4-38.35c-7.95-24.68-13.54-51.54-5.95-76.34c5.12-16.75,15.83-31.13,26.35-45.13
			c9-11.98,17.99-23.96,26.99-35.95c3.04-4.05,8.32-14.79,12.81-16.87C157.58,2.11,162.42,7.73,165.81,13.73z"/>
		<linearGradient id="SVGID_5_" gradientUnits="userSpaceOnUse" x1="338.525" y1="108.4498" x2="357.4067" y2="200.9222">
			<stop  offset="0" style="stop-color:#F09E2B"/>
			<stop  offset="1" style="stop-color:#F19E14"/>
		</linearGradient>
		<path class="st4" d="M369.31,100.4c-12.85,4.51-19.98,14.38-21.32,27.74c-0.59,5.91-0.53,11.92-1.82,17.72
			c-2.74,12.39-13.37,18.95-23.36,25.37c-23.48,15.09-25.29,39.86-18.43,65.21c3.57,13.19,11.43,24.34,26.05,25.13
			c15.95,0.86,31.6-6.53,43.17-17.54c11.57-11.01,19.45-25.37,25.4-40.2c3.2-7.99,5.92-16.28,6.53-24.86
			c1.17-16.43-3.04-32.75-6.68-48.63c-1.63-7.09-2.26-12.46-1.67-19.63c0.29-3.53,1.87-11.62-2.16-13.77
			c-0.95-0.51-2.07-0.59-3.15-0.63C384.34,96.07,376.41,97.9,369.31,100.4z"/>
		<linearGradient id="SVGID_6_" gradientUnits="userSpaceOnUse" x1="127.4024" y1="231.7037" x2="292.8243" y2="231.7037">
			<stop  offset="0" style="stop-color:#F09E2B"/>
			<stop  offset="1" style="stop-color:#F19E14"/>
		</linearGradient>
		<path class="st5" d="M175.34,232.25c0.04-0.03,0.09-0.05,0.13-0.08c8.9-4.96,19.49-4.62,28.96-7.9
			c14.5-5.02,23.32-18.32,27.09-32.63c2.76-10.48,0.51-21.32,2.12-31.9c0.83-5.45,2.8-10.85,6.47-14.96
			c8.42-9.41,23.87-12.5,35.38-7.38c12.83,5.71,12.55,20.75,9.75,32.44c-4.94,20.61-13.63,41.49-14.24,63.2
			c-0.66,23.63,10.68,45.13,19.61,66.34c1.95,4.64,3.67,10.55,0.25,14.25c-1.57,1.69-3.87,2.45-6.07,3.13
			c-31.26,9.69-65.65,17.67-96.05,5.54c-14.32-5.71-26.57-15.5-38.6-25.15c-6.98-5.6-14.7-11.4-19.8-18.9
			c-5.23-7.7-3.35-9.44,4.36-12.76c8.52-3.66,14.65-6.83,21.03-13.9C161.87,244.83,167.22,236.84,175.34,232.25z"/>
		<linearGradient id="SVGID_7_" gradientUnits="userSpaceOnUse" x1="184.6576" y1="99.7989" x2="300.0657" y2="99.7989">
			<stop  offset="0.0459" style="stop-color:#F2CB5C"/>
			<stop  offset="1" style="stop-color:#F09E2B"/>
		</linearGradient>
		<path class="st6" d="M191.98,105.32c1.34,3.68,2.32,7.43,2.31,11.36c-0.01,5.19-0.59,10.38-0.17,15.55
			c0.48,5.9,3.75,11.96,10.51,9.5c7.01-2.55,9.09-12.44,10.86-18.74c1.52-5.45,3.64-11.2,8.32-14.38
			c4.58-3.12,10.74-3.04,15.95-1.16c8.05,2.9,14.31,9.27,22.19,12.72c7.96,3.48,17.14,5.75,25.81,3.95
			c3.08-0.64,6.13-1.88,8.32-4.13c2.42-2.48,3.58-5.96,3.88-9.41c0.8-9.32-2.04-24.7-11.97-28.55c-6.74-2.62-14.91,0.61-21.65,1.71
			c-4.2,0.69-8.67,0.72-12.53-1.07c-5.79-2.69-8.1-8.54-12.09-13.07c-3.81-4.32-8.67-7.61-14.03-9.69
			c-21.99-8.54-50.4,4.6-41.25,31.58C187.98,96.09,190.27,100.64,191.98,105.32z"/>
	</g>
	<path class="st7" d="M389.72,135.15c-31,22.11-68.51,44.89-110.08,66.25c-6.15,3.17-12.3,6.23-18.39,9.23
		c-34.96,17.07-68.69,31.07-99.29,41.52c1.1,0.94,2.24,1.85,3.39,2.74c30.55-10.96,63.59-24.9,97.36-41.39
		c6.15-2.99,12.31-6.07,18.49-9.24c40.11-20.54,77.16-42.65,108.77-64.38C389.89,138.32,389.83,136.71,389.72,135.15z"/>
</g>
</svg>
