<?xml version="1.0" encoding="utf-8"?>
<!-- Generator: Adobe Illustrator 23.0.3, SVG Export Plug-In . SVG Version: 6.00 Build 0)  -->
<svg version="1.1" id="레이어_1" xmlns="http://www.w3.org/2000/svg" xmlns:xlink="http://www.w3.org/1999/xlink" x="0px"
	 y="0px" viewBox="0 0 500 500" style="enable-background:new 0 0 500 500;" xml:space="preserve">
<style type="text/css">
	.st0{clip-path:url(#SVGID_1_);fill:url(#SVGID_2_);}
	.st1{clip-path:url(#SVGID_1_);fill:url(#SVGID_3_);}
	.st2{clip-path:url(#SVGID_1_);fill:url(#SVGID_4_);}
	.st3{clip-path:url(#SVGID_1_);fill:url(#SVGID_5_);}
</style>
<g>
	<defs>
		<circle id="SVGID_7_" cx="250" cy="250" r="246.63"/>
	</defs>
	<clipPath id="SVGID_1_">
		<use xlink:href="#SVGID_7_"  style="overflow:visible;"/>
	</clipPath>
	<linearGradient id="SVGID_2_" gradientUnits="userSpaceOnUse" x1="139.8842" y1="33.131" x2="364.2449" y2="475.0012">
		<stop  offset="0.0459" style="stop-color:#F8C4AD"/>
		<stop  offset="1" style="stop-color:#F2CB5C"/>
	</linearGradient>
	<circle class="st0" cx="250" cy="250" r="246.63"/>
	<linearGradient id="SVGID_3_" gradientUnits="userSpaceOnUse" x1="241.8429" y1="26.169" x2="354.8802" y2="480.0297">
		<stop  offset="0" style="stop-color:#F2CB5C"/>
		<stop  offset="0.9541" style="stop-color:#F8C4AD"/>
	</linearGradient>
	<path class="st1" d="M72.63,6.49c-11.85,30.08-2.46,67.23,22.25,88.08c3.02,2.55,6.34,4.99,8.1,8.53
		c4.39,8.84-2.76,18.67-7.88,27.12c-16.36,26.98-12.04,64.8,9.99,87.39c5.02,5.15,10.84,9.58,15.03,15.43
		c12.29,17.2,4.17,33.14,3.12,51.55c-0.35,6.23,0.94,12.77,4.82,17.65c10.1,12.73,33.53,11.47,47.47,7.75
		c14.67-3.92,27.54-17.29,26.88-32.46c-0.34-7.64-3.88-14.73-5.75-22.14c-1.87-7.41-1.63-16.34,4.1-21.4
		c2.93-2.59,6.89-3.75,10.79-4.06c17.8-1.41,32.4,12.7,47.11,22.82c12.4,8.52,28.17,14.79,42.33,9.72
		c13.42-4.81,21.79-18.98,23.45-33.15c1.66-14.16-2.26-28.36-6.97-41.82c-4.72-13.46-10.32-26.77-12.23-40.9
		c-1.11-8.21-0.88-16.88,2.65-24.38c3.53-7.5,10.9-13.57,19.18-13.76c5.16-0.12,10.08,1.94,15.02,3.47
		c28.16,8.69,61.15-1.51,79.49-24.58s20.86-57.51,6.06-82.99c-11.97-20.61-33.32-34.29-55.66-42.61
		c-42.46-15.83-89.08-14.7-134.38-13.37c-10.77,0.32-21.64,0.65-32.1,3.24c-24.91,6.17-44.19,19.42-70.49,19.44
		C107.33-28.91,83.49-21.09,72.63,6.49z"/>
	<linearGradient id="SVGID_4_" gradientUnits="userSpaceOnUse" x1="75.3574" y1="185.8044" x2="80.4956" y2="369.4894">
		<stop  offset="0.0459" style="stop-color:#F8C4AD"/>
		<stop  offset="1" style="stop-color:#F2CB5C"/>
	</linearGradient>
	<path class="st2" d="M50.67,155.94c2.98,19.5,0.07,39.35-1.17,59.03c-0.25,3.98-0.41,8.09,1.01,11.81
		c1.8,4.71,5.84,8.11,9.26,11.81c11.16,12.06,16.36,28.37,20.46,44.28c4.1,15.91,7.57,32.36,16.21,46.34
		c8.64,13.98,23.9,25.24,40.28,23.91c15.22-1.24,27.38-12.52,40.77-19.86c9.27-5.08,19.52-8.38,30.02-9.65
		c11.88-1.44,26.35,1.25,31.1,12.24c2.16,4.98,1.78,10.65,1.33,16.07c-0.79,9.55-2.45,20.4-10.47,25.65
		c-4.86,3.18-11.06,3.52-16.25,6.13c-11.72,5.91-14.85,22.19-10.14,34.44c4.71,12.25,15.09,21.31,25.26,29.61
		c6.66,5.44,13.53,10.93,18.13,18.2c4.59,7.27,6.55,16.84,2.71,24.54c-4.9,9.83-17.02,13.38-27.91,14.83
		c-53.82,7.16-107.14-11.84-159.71-25.41c-26.7-6.89-54.62-12.83-76.76-29.27c-12.27-9.11-22.16-21.04-31.08-33.44
		c-12.01-16.71-22.54-34.58-30.03-53.75c-20.9-53.51-16.13-116.5,12.94-166.05c10.59-18.04,24.07-34.18,37.49-50.23
		c9.54-11.41,28.94-37.45,46.02-37.16C37.94,110.32,48.56,142.2,50.67,155.94z"/>
	<linearGradient id="SVGID_5_" gradientUnits="userSpaceOnUse" x1="399.1583" y1="205.3019" x2="437.6937" y2="374.8571">
		<stop  offset="0" style="stop-color:#F2CB5C"/>
		<stop  offset="0.9541" style="stop-color:#F8C4AD"/>
	</linearGradient>
	<path class="st3" d="M312.79,447.92c-16.52-6.06-37.82-8.9-44.16-25.32c-3.65-9.45-0.47-20.23,4.59-29
		c5.07-8.77,11.96-16.41,16.62-25.41c8.16-15.78,8.65-35.31,1.27-51.47c-2.22-4.86-5.18-9.83-4.49-15.12
		c0.9-6.99,7.95-11.66,14.84-13.13c6.89-1.47,14.09-0.71,21.04-1.88c15.9-2.69,29.28-16.48,31.48-32.45
		c1.54-11.19-1.88-22.89,1.31-33.72c3.85-13.07,16.41-21.65,29.05-26.74s26.31-7.89,37.98-14.93
		c18.68-11.27,29.68-31.85,36.92-52.43c3.63-10.33,7-21.59,15.61-28.36c9.94-7.82,24.27-7.31,36.22-3.18
		c24.8,8.58,43.22,30.51,53.31,54.73c10.09,24.22,12.91,50.79,14.83,76.96c3.08,41.99,3.82,85.7-12.67,124.44
		c-19.92,46.78-62.05,79.82-103.26,109.6c-27.7,20.01-56.1,39.71-87.95,52.09c-10.37,4.03-20.23-28.67-24.77-35.2
		C341.26,464.02,328.05,453.64,312.79,447.92z"/>
</g>
</svg>
